<svg id="visual" viewBox="0 0 900 600" width="900" height="600" xmlns="http://www.w3.org/2000/svg" xmlns:xlink="http://www.w3.org/1999/xlink" version="1.1"><rect x="0" y="0" width="900" height="600" fill="#ffd79c"></rect><defs><linearGradient id="grad1_0" x1="33.3%" y1="0%" x2="100%" y2="100%"><stop offset="20%" stop-color="#f1be72" stop-opacity="1"></stop><stop offset="80%" stop-color="#f1be72" stop-opacity="1"></stop></linearGradient></defs><defs><linearGradient id="grad1_1" x1="33.3%" y1="0%" x2="100%" y2="100%"><stop offset="20%" stop-color="#f1be72" stop-opacity="1"></stop><stop offset="80%" stop-color="#f6c680" stop-opacity="1"></stop></linearGradient></defs><defs><linearGradient id="grad1_2" x1="33.3%" y1="0%" x2="100%" y2="100%"><stop offset="20%" stop-color="#facf8e" stop-opacity="1"></stop><stop offset="80%" stop-color="#f6c680" stop-opacity="1"></stop></linearGradient></defs><defs><linearGradient id="grad1_3" x1="33.3%" y1="0%" x2="100%" y2="100%"><stop offset="20%" stop-color="#facf8e" stop-opacity="1"></stop><stop offset="80%" stop-color="#ffd79c" stop-opacity="1"></stop></linearGradient></defs><defs><linearGradient id="grad2_0" x1="0%" y1="0%" x2="66.7%" y2="100%"><stop offset="20%" stop-color="#f1be72" stop-opacity="1"></stop><stop offset="80%" stop-color="#f1be72" stop-opacity="1"></stop></linearGradient></defs><defs><linearGradient id="grad2_1" x1="0%" y1="0%" x2="66.7%" y2="100%"><stop offset="20%" stop-color="#f6c680" stop-opacity="1"></stop><stop offset="80%" stop-color="#f1be72" stop-opacity="1"></stop></linearGradient></defs><defs><linearGradient id="grad2_2" x1="0%" y1="0%" x2="66.7%" y2="100%"><stop offset="20%" stop-color="#f6c680" stop-opacity="1"></stop><stop offset="80%" stop-color="#facf8e" stop-opacity="1"></stop></linearGradient></defs><defs><linearGradient id="grad2_3" x1="0%" y1="0%" x2="66.7%" y2="100%"><stop offset="20%" stop-color="#ffd79c" stop-opacity="1"></stop><stop offset="80%" stop-color="#facf8e" stop-opacity="1"></stop></linearGradient></defs><g transform="translate(900, 0)"><path d="M0 378.6C-18.4 390.7 -36.7 402.9 -45.6 375.8C-54.5 348.8 -54 282.5 -67.2 272.8C-80.5 263.2 -107.7 310.2 -116.7 307.6C-125.7 305.1 -116.5 253 -126.4 240.8C-136.3 228.7 -165.1 256.4 -176.1 255.1C-187.1 253.9 -180.3 223.6 -188.3 212.6C-196.4 201.6 -219.3 209.8 -232 205.6C-244.7 201.3 -247.2 184.5 -242 167C-236.8 149.5 -223.9 131.4 -238.2 125C-252.4 118.6 -293.8 124 -306.7 116.3C-319.6 108.6 -304.2 87.8 -293.2 72.3C-282.3 56.7 -275.9 46.5 -290.9 35.3C-305.8 24.2 -342.2 12.1 -378.6 0L0 0Z" fill="#fdd395"></path><path d="M0 283.9C-13.8 293.1 -27.6 302.2 -34.2 281.9C-40.9 261.6 -40.5 211.9 -50.4 204.6C-60.4 197.4 -80.7 232.6 -87.5 230.7C-94.3 228.8 -87.4 189.8 -94.8 180.6C-102.2 171.5 -123.8 192.3 -132.1 191.3C-140.3 190.4 -135.2 167.7 -141.2 159.4C-147.3 151.2 -164.5 157.4 -174 154.2C-183.5 151 -185.4 138.4 -181.5 125.3C-177.6 112.2 -168 98.5 -178.6 93.8C-189.3 89 -220.3 93 -230 87.2C-239.7 81.5 -228.1 65.9 -219.9 54.2C-211.7 42.6 -206.9 34.9 -218.1 26.5C-229.4 18.1 -256.7 9.1 -283.9 0L0 0Z" fill="#f8ca87"></path><path d="M0 189.3C-9.2 195.4 -18.4 201.4 -22.8 187.9C-27.3 174.4 -27 141.2 -33.6 136.4C-40.3 131.6 -53.8 155.1 -58.3 153.8C-62.8 152.5 -58.3 126.5 -63.2 120.4C-68.1 114.3 -82.5 128.2 -88.1 127.6C-93.6 126.9 -90.1 111.8 -94.2 106.3C-98.2 100.8 -109.7 104.9 -116 102.8C-122.4 100.6 -123.6 92.2 -121 83.5C-118.4 74.8 -112 65.7 -119.1 62.5C-126.2 59.3 -146.9 62 -153.3 58.2C-159.8 54.3 -152.1 43.9 -146.6 36.1C-141.1 28.4 -137.9 23.2 -145.4 17.7C-152.9 12.1 -171.1 6 -189.3 0L0 0Z" fill="#f3c279"></path><path d="M0 94.6C-4.6 97.7 -9.2 100.7 -11.4 94C-13.6 87.2 -13.5 70.6 -16.8 68.2C-20.1 65.8 -26.9 77.5 -29.2 76.9C-31.4 76.3 -29.1 63.3 -31.6 60.2C-34.1 57.2 -41.3 64.1 -44 63.8C-46.8 63.5 -45.1 55.9 -47.1 53.1C-49.1 50.4 -54.8 52.5 -58 51.4C-61.2 50.3 -61.8 46.1 -60.5 41.8C-59.2 37.4 -56 32.8 -59.5 31.3C-63.1 29.7 -73.4 31 -76.7 29.1C-79.9 27.2 -76 22 -73.3 18.1C-70.6 14.2 -69 11.6 -72.7 8.8C-76.5 6 -85.6 3 -94.6 0L0 0Z" fill="#f1be72"></path></g><g transform="translate(0, 600)"><path d="M0 -378.6C15.1 -373.8 30.2 -369.1 44 -362.3C57.8 -355.6 70.4 -346.8 85.4 -346.6C100.5 -346.5 118.1 -355 134.2 -354C150.4 -352.9 165 -342.2 165.9 -316.1C166.8 -290 153.8 -248.4 167 -242C180.2 -235.5 219.5 -264.2 229.4 -259C239.4 -253.8 219.9 -214.8 226.8 -200.9C233.7 -187.1 266.9 -198.4 278.2 -192C289.5 -185.7 278.9 -161.7 281.6 -147.8C284.3 -133.9 300.3 -130.1 325.4 -123.4C350.4 -116.7 384.5 -107 365.1 -90C345.6 -72.9 272.7 -48.5 266 -32.3C259.4 -16.1 319 -8 378.6 0L0 0Z" fill="#fdd395"></path><path d="M0 -283.9C11.3 -280.4 22.6 -276.8 33 -271.8C43.4 -266.7 52.8 -260.1 64.1 -260C75.4 -259.9 88.6 -266.3 100.7 -265.5C112.8 -264.7 123.8 -256.7 124.4 -237.1C125.1 -217.5 115.4 -186.3 125.3 -181.5C135.1 -176.6 164.6 -198.1 172.1 -194.2C179.5 -190.4 164.9 -161.1 170.1 -150.7C175.3 -140.3 200.2 -148.8 208.6 -144C217.1 -139.2 209.1 -121.2 211.2 -110.8C213.2 -100.4 225.2 -97.6 244 -92.6C262.8 -87.5 288.4 -80.3 273.8 -67.5C259.2 -54.7 204.5 -36.4 199.5 -24.2C194.5 -12.1 239.2 -6 283.9 0L0 0Z" fill="#f8ca87"></path><path d="M0 -189.3C7.5 -186.9 15.1 -184.6 22 -181.2C28.9 -177.8 35.2 -173.4 42.7 -173.3C50.3 -173.2 59.1 -177.5 67.1 -177C75.2 -176.5 82.5 -171.1 83 -158.1C83.4 -145 76.9 -124.2 83.5 -121C90.1 -117.8 109.8 -132.1 114.7 -129.5C119.7 -126.9 110 -107.4 113.4 -100.5C116.8 -93.5 133.4 -99.2 139.1 -96C144.7 -92.8 139.4 -80.8 140.8 -73.9C142.1 -66.9 150.2 -65.1 162.7 -61.7C175.2 -58.3 192.3 -53.5 182.5 -45C172.8 -36.5 136.4 -24.3 133 -16.2C129.7 -8 159.5 -4 189.3 0L0 0Z" fill="#f3c279"></path><path d="M0 -94.6C3.8 -93.5 7.5 -92.3 11 -90.6C14.5 -88.9 17.6 -86.7 21.4 -86.7C25.1 -86.6 29.5 -88.8 33.6 -88.5C37.6 -88.2 41.3 -85.6 41.5 -79C41.7 -72.5 38.5 -62.1 41.8 -60.5C45 -58.9 54.9 -66 57.4 -64.7C59.8 -63.5 55 -53.7 56.7 -50.2C58.4 -46.8 66.7 -49.6 69.5 -48C72.4 -46.4 69.7 -40.4 70.4 -36.9C71.1 -33.5 75.1 -32.5 81.3 -30.9C87.6 -29.2 96.1 -26.8 91.3 -22.5C86.4 -18.2 68.2 -12.1 66.5 -8.1C64.8 -4 79.7 -2 94.6 0L0 0Z" fill="#f1be72"></path></g></svg>